<?xml version="1.0" standalone="no"?>
<!DOCTYPE svg PUBLIC "-//W3C//DTD SVG 20010904//EN"
 "http://www.w3.org/TR/2001/REC-SVG-20010904/DTD/svg10.dtd">
<svg version="1.0" xmlns="http://www.w3.org/2000/svg"
 width="465.000000pt" height="660.000000pt" viewBox="0 0 465.000000 660.000000"
 preserveAspectRatio="xMidYMid meet">
<metadata>
Created by potrace 1.10, written by Peter Selinger 2001-2011
</metadata>
<g transform="translate(0.000000,660.000000) scale(0.100000,-0.100000)"
fill="#5e0000" stroke="none">
<path d="M2230 6100 c-130 -29 -170 -41 -205 -59 -21 -12 -44 -21 -51 -21 -6
0 -19 -9 -29 -20 -10 -11 -23 -20 -30 -20 -17 0 -170 -150 -191 -189 -20 -36
-26 -45 -61 -102 -13 -20 -23 -48 -23 -62 0 -15 -10 -50 -21 -79 -21 -51 -22
-66 -21 -468 l1 -415 -26 -37 c-14 -21 -28 -38 -32 -38 -14 0 -144 -133 -166
-171 -5 -9 -25 -33 -43 -54 -25 -28 -36 -35 -45 -26 -6 6 -19 11 -29 11 -19 0
-24 -16 -32 -95 -11 -112 -26 -228 -30 -243 -3 -10 -1 -24 4 -32 8 -12 13 -12
37 6 16 12 40 25 53 29 14 4 32 13 40 19 29 24 109 66 124 66 8 0 32 16 53 35
l38 35 -24 19 -25 19 29 39 c16 21 35 44 42 51 7 7 13 17 13 21 0 4 18 20 40
37 22 16 42 37 45 46 3 9 28 31 55 48 27 17 50 35 52 40 2 4 35 24 73 45 39
20 77 42 85 49 17 15 92 42 170 61 30 7 75 21 100 31 36 13 79 17 212 17 146
-1 172 -3 210 -21 24 -11 66 -23 93 -27 28 -4 59 -12 70 -19 11 -7 39 -18 62
-24 23 -7 45 -17 48 -22 3 -5 25 -19 48 -30 76 -36 171 -105 226 -163 66 -71
91 -70 91 2 0 44 19 111 38 134 14 16 13 20 -6 45 -61 75 -56 43 -63 472 -7
405 -18 539 -52 605 -8 17 -20 41 -27 55 -35 76 -98 161 -154 210 -63 54 -141
109 -164 115 -13 3 -36 14 -50 23 -55 36 -206 61 -367 60 -82 0 -166 -4 -185
-8z m335 -221 c79 -14 127 -27 140 -39 11 -10 31 -21 46 -25 28 -7 149 -110
149 -128 0 -6 9 -20 19 -31 11 -12 32 -50 47 -86 l28 -65 0 -344 c1 -391 4
-377 -75 -348 -46 16 -96 32 -213 69 -63 20 -89 22 -300 21 -206 0 -237 -3
-291 -21 -33 -11 -76 -24 -95 -28 -19 -3 -51 -15 -70 -25 -41 -22 -103 -25
-119 -5 -8 10 -11 101 -8 327 4 340 10 391 61 480 37 65 144 171 187 184 13 4
35 16 49 26 14 10 67 26 120 35 52 9 97 18 99 20 11 10 116 2 226 -17z"/>
<path d="M3352 4407 c-6 -7 -12 -86 -13 -177 l-4 -165 25 -3 c39 -6 68 -40 79
-94 6 -27 16 -59 23 -71 6 -12 17 -60 24 -107 26 -166 13 -409 -26 -502 -11
-26 -20 -55 -20 -65 0 -10 -16 -47 -35 -83 -19 -36 -40 -77 -47 -91 -54 -108
-256 -321 -343 -361 -14 -6 -25 -15 -25 -19 0 -4 -12 -12 -27 -18 -16 -5 -39
-17 -53 -25 -45 -26 -115 -55 -150 -63 -47 -9 -140 -50 -140 -62 0 -5 12 -14
28 -20 45 -19 104 -58 145 -96 l38 -36 42 19 c23 11 59 25 80 32 20 6 37 15
37 20 0 5 16 14 36 20 113 38 354 247 462 402 69 98 157 272 166 327 3 24 13
55 21 70 7 15 17 56 21 92 4 35 13 76 20 91 19 37 19 300 0 354 -7 22 -16 62
-20 89 -4 28 -16 76 -27 108 -10 31 -19 65 -19 75 0 9 -9 34 -20 55 -26 48
-25 71 2 89 27 18 19 41 -24 68 -18 11 -40 24 -48 30 -8 6 -27 18 -42 28 -14
9 -47 31 -72 49 -70 49 -82 54 -94 40z"/>
<path d="M1320 3953 c-8 -3 -26 -14 -39 -24 -13 -11 -32 -19 -42 -19 -11 0
-27 -9 -36 -20 -21 -24 -50 -26 -74 -5 -15 15 -17 12 -22 -37 -24 -207 -14
-505 17 -552 8 -14 22 -53 30 -88 18 -78 48 -162 67 -186 8 -9 25 -39 39 -67
13 -27 43 -76 67 -108 24 -31 43 -60 43 -63 0 -8 73 -87 119 -128 19 -17 49
-45 66 -63 18 -17 51 -41 74 -52 23 -12 41 -25 41 -29 0 -5 15 -16 33 -25 17
-10 57 -31 87 -48 72 -39 196 -89 222 -89 11 0 35 -9 52 -20 22 -13 58 -21
117 -25 120 -9 125 -10 144 -50 20 -44 36 -51 72 -32 73 39 151 76 186 87 20
6 37 15 37 20 0 4 14 13 30 20 17 7 30 16 30 20 0 10 -34 36 -87 67 -21 13
-76 45 -122 73 -46 27 -88 50 -93 50 -6 0 -18 -10 -28 -22 -17 -21 -26 -23
-101 -20 -57 1 -94 8 -118 21 -20 10 -57 21 -83 25 -25 4 -51 13 -58 21 -6 7
-23 16 -37 20 -15 3 -39 15 -54 26 -15 10 -31 19 -35 19 -9 0 -69 40 -129 85
-55 43 -145 132 -181 180 -16 22 -33 43 -38 47 -10 6 -31 44 -60 104 -8 17
-22 36 -30 43 -9 7 -18 28 -22 47 -3 19 -15 51 -25 71 -11 21 -19 48 -19 61 0
12 -10 42 -22 65 -21 39 -23 54 -23 242 0 187 1 203 23 253 33 75 25 121 -18
105z"/>
<path d="M2331 3953 c-40 -17 -87 -58 -114 -100 -26 -40 -31 -58 -32 -109 0
-50 5 -68 29 -105 15 -24 43 -58 62 -76 28 -26 34 -39 34 -73 0 -23 -7 -54
-15 -71 -22 -42 -41 -255 -24 -275 10 -12 38 -14 153 -12 l141 3 3 49 c2 27
-4 71 -13 98 -15 48 -34 166 -35 221 0 16 10 37 23 50 56 56 70 79 82 137 21
99 -10 183 -89 241 -26 20 -45 24 -111 26 -44 1 -86 0 -94 -4z"/>
<path d="M625 1420 c-11 -18 -7 -652 4 -663 16 -16 20 6 23 126 3 100 5 110
27 128 16 14 39 19 79 19 70 0 107 -26 147 -105 16 -32 39 -68 52 -81 13 -13
23 -28 23 -35 0 -18 41 -70 51 -64 15 10 10 44 -9 73 -48 70 -72 109 -72 116
0 4 -9 19 -20 33 -30 38 -25 63 26 121 42 48 47 58 51 116 9 102 -21 160 -105
204 -37 19 -58 22 -157 22 -63 0 -117 -4 -120 -10z m236 -41 c19 -7 51 -30 71
-53 34 -37 37 -47 38 -98 0 -51 -4 -62 -32 -94 -42 -47 -83 -64 -156 -64 -77
0 -120 15 -128 45 -3 13 -4 72 -2 130 3 98 5 108 27 126 27 22 126 26 182 8z"/>
<path d="M3532 1418 c-8 -8 -12 -45 -12 -100 l0 -88 -35 -14 c-19 -8 -35 -17
-35 -19 0 -2 16 -21 35 -43 l35 -39 0 -130 c0 -173 7 -195 69 -224 84 -40 118
-13 37 30 -26 15 -52 33 -57 40 -5 8 -9 80 -9 161 0 160 -3 152 66 195 21 12
16 15 -38 27 l-28 6 0 93 c0 98 -8 125 -28 105z"/>
<path d="M3807 1423 c-4 -3 -7 -157 -7 -340 0 -313 1 -334 18 -331 15 3 18 20
23 133 8 175 29 221 118 260 45 20 78 18 131 -8 71 -35 93 -90 100 -246 3 -85
9 -126 17 -128 20 -7 26 41 21 160 -6 140 -28 194 -101 244 -64 45 -123 53
-172 24 -43 -25 -78 -27 -99 -5 -13 12 -16 38 -16 118 0 75 -4 107 -13 115 -8
6 -17 8 -20 4z"/>
<path d="M2177 1414 c-4 -4 -7 -56 -7 -115 0 -147 -16 -162 -112 -114 -63 31
-101 32 -170 0 -124 -57 -186 -194 -133 -295 69 -132 186 -180 312 -128 29 12
53 25 53 29 0 4 14 23 30 41 56 61 61 88 58 347 -3 222 -8 258 -31 235z m-131
-273 c60 -29 91 -63 110 -124 16 -52 16 -57 0 -98 -23 -57 -61 -97 -114 -120
-53 -23 -76 -24 -133 -4 -48 17 -73 40 -108 100 -29 49 -29 92 -2 148 49 101
154 143 247 98z"/>
<path d="M1305 1188 c-99 -52 -143 -117 -144 -209 -3 -175 169 -289 324 -215
64 31 87 57 120 135 29 70 28 85 -10 166 -27 59 -53 84 -119 119 -60 32 -116
33 -171 4z m157 -47 c60 -26 81 -49 103 -114 19 -55 19 -58 1 -109 -25 -70
-59 -105 -123 -125 -46 -14 -61 -15 -101 -4 -89 23 -153 119 -139 207 11 69
38 107 97 136 65 32 103 35 162 9z"/>
<path d="M2479 1191 c-80 -40 -116 -79 -139 -151 -21 -65 -21 -71 -6 -123 21
-71 69 -130 128 -156 59 -26 113 -27 185 -1 62 22 103 26 103 10 0 -5 9 -10
20 -10 19 0 20 7 20 120 0 181 -30 244 -142 301 -66 33 -116 36 -169 10z m152
-50 c58 -26 82 -54 102 -118 15 -50 15 -56 -3 -108 -23 -68 -52 -100 -109
-120 -53 -18 -75 -19 -123 -2 -77 27 -131 103 -129 182 1 70 52 149 102 160
16 4 31 11 34 16 10 16 80 10 126 -10z"/>
<path d="M2904 1176 c-3 -13 -4 -82 -2 -153 l3 -128 45 -58 c67 -87 170 -122
240 -82 30 17 92 19 107 4 28 -28 33 5 33 204 0 198 -8 251 -30 217 -5 -8 -10
-59 -10 -113 0 -102 -20 -198 -47 -229 -36 -41 -152 -74 -168 -48 -3 6 -14 10
-24 10 -21 0 -62 43 -87 90 -13 26 -19 65 -21 150 -4 128 -9 160 -23 160 -5 0
-12 -11 -16 -24z"/>
</g>
</svg>
